<?xml version="1.0" encoding="UTF-8"?>
<mxfile host="app.diagrams.net" modified="2024-05-24T00:00:00.000Z" agent="draw.io psins" version="20.8.16" editor="Circuit" type="device">
  <diagram id="PSINS-Architecture" name="PSINS Functional Architecture">
    <mxGraphModel dx="1600" dy="900" grid="1" gridSize="10" guides="1" tooltips="1" connect="1" arrows="1" fold="1" page="1" pageScale="1" pageWidth="1600" pageHeight="900" math="0" shadow="0">
      <root>
        <mxCell id="0"/>
        <mxCell id="1" parent="0"/>
        <mxCell id="psins" value="PSINS Toolbox" style="rounded=1;whiteSpace=wrap;html=1;fontSize=18;fontStyle=1;fillColor=#dae8fc;strokeColor=#6c8ebf;" vertex="1" parent="1">
          <mxGeometry x="660" y="40" width="280" height="80" as="geometry"/>
        </mxCell>
        <mxCell id="env" value="Environment &amp; Configuration" style="rounded=1;whiteSpace=wrap;html=1;fontSize=14;fillColor=#e1d5e7;strokeColor=#9673a6;" vertex="1" parent="1">
          <mxGeometry x="240" y="160" width="260" height="80" as="geometry"/>
        </mxCell>
        <mxCell id="sensors" value="Sensor &amp; Simulation Modules" style="rounded=1;whiteSpace=wrap;html=1;fontSize=14;fillColor=#ffe6cc;strokeColor=#d79b00;" vertex="1" parent="1">
          <mxGeometry x="540" y="160" width="260" height="80" as="geometry"/>
        </mxCell>
        <mxCell id="core" value="Core Navigation Engines" style="rounded=1;whiteSpace=wrap;html=1;fontSize=14;fillColor=#d5e8d4;strokeColor=#82b366;" vertex="1" parent="1">
          <mxGeometry x="840" y="160" width="260" height="80" as="geometry"/>
        </mxCell>
        <mxCell id="utilities" value="Utilities &amp; Support Services" style="rounded=1;whiteSpace=wrap;html=1;fontSize=14;fillColor=#f8cecc;strokeColor=#b85450;" vertex="1" parent="1">
          <mxGeometry x="1140" y="160" width="260" height="80" as="geometry"/>
        </mxCell>
        <mxCell id="apps" value="Applications &amp; Demos" style="rounded=1;whiteSpace=wrap;html=1;fontSize=14;fillColor=#cce5ff;strokeColor=#4d7dbf;" vertex="1" parent="1">
          <mxGeometry x="540" y="360" width="260" height="80" as="geometry"/>
        </mxCell>
        <mxCell id="data" value="Reference Data &amp; Assets" style="rounded=1;whiteSpace=wrap;html=1;fontSize=14;fillColor=#fff2cc;strokeColor=#d6b656;" vertex="1" parent="1">
          <mxGeometry x="840" y="360" width="260" height="80" as="geometry"/>
        </mxCell>
        <mxCell id="env_setup" value="Environment initialization&#xa;(psinsinit.m, psinsmain.m)" style="rounded=1;whiteSpace=wrap;html=1;fontSize=12;fillColor=#f5f5f5;strokeColor=#9673a6;" vertex="1" parent="1">
          <mxGeometry x="240" y="280" width="260" height="70" as="geometry"/>
        </mxCell>
        <mxCell id="env_constants" value="Global constants &amp; configuration&#xa;(glvs.m, glvf.m, userdef/)" style="rounded=1;whiteSpace=wrap;html=1;fontSize=12;fillColor=#f5f5f5;strokeColor=#9673a6;" vertex="1" parent="1">
          <mxGeometry x="240" y="370" width="260" height="70" as="geometry"/>
        </mxCell>
        <mxCell id="sensor_imu" value="IMU error modeling &amp; simulation&#xa;(base/imu/, base/base1/)" style="rounded=1;whiteSpace=wrap;html=1;fontSize=12;fillColor=#fff2cc;strokeColor=#d79b00;" vertex="1" parent="1">
          <mxGeometry x="540" y="260" width="260" height="70" as="geometry"/>
        </mxCell>
        <mxCell id="sensor_gnss" value="GNSS/CNS signal generators&#xa;(gnss/, cns/, base/base1/gpssimu.m)" style="rounded=1;whiteSpace=wrap;html=1;fontSize=12;fillColor=#fff2cc;strokeColor=#d79b00;" vertex="1" parent="1">
          <mxGeometry x="540" y="350" width="260" height="70" as="geometry"/>
        </mxCell>
        <mxCell id="core_mech" value="Strapdown mechanization &amp; propagation&#xa;(base/base0/, base/base1/, glvf.m)" style="rounded=1;whiteSpace=wrap;html=1;fontSize=12;fillColor=#d5e8d4;strokeColor=#82b366;" vertex="1" parent="1">
          <mxGeometry x="840" y="260" width="260" height="70" as="geometry"/>
        </mxCell>
        <mxCell id="core_align" value="Alignment &amp; attitude estimation&#xa;(base/align/, base/ahrs/)" style="rounded=1;whiteSpace=wrap;html=1;fontSize=12;fillColor=#d5e8d4;strokeColor=#82b366;" vertex="1" parent="1">
          <mxGeometry x="840" y="350" width="260" height="70" as="geometry"/>
        </mxCell>
        <mxCell id="core_kf" value="Kalman filtering &amp; sensor fusion&#xa;(base/kf/, sinsgps.m, fkfupdate.m)" style="rounded=1;whiteSpace=wrap;html=1;fontSize=12;fillColor=#d5e8d4;strokeColor=#82b366;" vertex="1" parent="1">
          <mxGeometry x="840" y="440" width="260" height="70" as="geometry"/>
        </mxCell>
        <mxCell id="util_io" value="Data I/O &amp; file interfaces&#xa;(base/io/, gnss/io/, data/)" style="rounded=1;whiteSpace=wrap;html=1;fontSize=12;fillColor=#fdeaea;strokeColor=#b85450;" vertex="1" parent="1">
          <mxGeometry x="1140" y="260" width="260" height="70" as="geometry"/>
        </mxCell>
        <mxCell id="util_plot" value="Visualization &amp; diagnostics&#xa;(base/plot/, gnss/io/pvtplot.m)" style="rounded=1;whiteSpace=wrap;html=1;fontSize=12;fillColor=#fdeaea;strokeColor=#b85450;" vertex="1" parent="1">
          <mxGeometry x="1140" y="350" width="260" height="70" as="geometry"/>
        </mxCell>
        <mxCell id="util_tools" value="Support utilities &amp; user extensions&#xa;(tools/, userdef/, psinsenvi.m)" style="rounded=1;whiteSpace=wrap;html=1;fontSize=12;fillColor=#fdeaea;strokeColor=#b85450;" vertex="1" parent="1">
          <mxGeometry x="1140" y="440" width="260" height="70" as="geometry"/>
        </mxCell>
        <mxCell id="apps_demos" value="Reference demos &amp; tutorials&#xa;(demos/, dlg/, README.md)" style="rounded=1;whiteSpace=wrap;html=1;fontSize=12;fillColor=#e6f2ff;strokeColor=#4d7dbf;" vertex="1" parent="1">
          <mxGeometry x="540" y="450" width="260" height="70" as="geometry"/>
        </mxCell>
        <mxCell id="apps_tests" value="Test harness &amp; validation cases&#xa;(gnss/test/, mytest/)" style="rounded=1;whiteSpace=wrap;html=1;fontSize=12;fillColor=#e6f2ff;strokeColor=#4d7dbf;" vertex="1" parent="1">
          <mxGeometry x="540" y="540" width="260" height="70" as="geometry"/>
        </mxCell>
        <mxCell id="data_catalog" value="Sensor &amp; trajectory datasets&#xa;(data/, doc/)" style="rounded=1;whiteSpace=wrap;html=1;fontSize=12;fillColor=#fff9d6;strokeColor=#d6b656;" vertex="1" parent="1">
          <mxGeometry x="840" y="540" width="260" height="70" as="geometry"/>
        </mxCell>
        <mxCell id="data_models" value="Parameter libraries &amp; constants&#xa;(gnss/*vars.m, glvwie.m)" style="rounded=1;whiteSpace=wrap;html=1;fontSize=12;fillColor=#fff9d6;strokeColor=#d6b656;" vertex="1" parent="1">
          <mxGeometry x="840" y="450" width="260" height="70" as="geometry"/>
        </mxCell>
        <mxCell id="edge_psins_env" style="endArrow=block;html=1;strokeColor=#6c8ebf;" edge="1" parent="1" source="psins" target="env">
          <mxGeometry relative="1" as="geometry"/>
        </mxCell>
        <mxCell id="edge_psins_sensors" style="endArrow=block;html=1;strokeColor=#6c8ebf;" edge="1" parent="1" source="psins" target="sensors">
          <mxGeometry relative="1" as="geometry"/>
        </mxCell>
        <mxCell id="edge_psins_core" style="endArrow=block;html=1;strokeColor=#6c8ebf;" edge="1" parent="1" source="psins" target="core">
          <mxGeometry relative="1" as="geometry"/>
        </mxCell>
        <mxCell id="edge_psins_util" style="endArrow=block;html=1;strokeColor=#6c8ebf;" edge="1" parent="1" source="psins" target="utilities">
          <mxGeometry relative="1" as="geometry"/>
        </mxCell>
        <mxCell id="edge_psins_apps" style="endArrow=block;html=1;strokeColor=#6c8ebf;" edge="1" parent="1" source="psins" target="apps">
          <mxGeometry relative="1" as="geometry">
            <mxPoint x="670" y="320" as="targetPoint"/>
          </mxGeometry>
        </mxCell>
        <mxCell id="edge_psins_data" style="endArrow=block;html=1;strokeColor=#6c8ebf;" edge="1" parent="1" source="psins" target="data">
          <mxGeometry relative="1" as="geometry">
            <mxPoint x="930" y="320" as="targetPoint"/>
          </mxGeometry>
        </mxCell>
        <mxCell id="edge_env_core" style="endArrow=block;html=1;strokeColor=#9673a6;dashed=1;" edge="1" parent="1" source="env" target="core">
          <mxGeometry relative="1" as="geometry"/>
        </mxCell>
        <mxCell id="edge_sensors_core" style="endArrow=block;html=1;strokeColor=#d79b00;" edge="1" parent="1" source="sensors" target="core">
          <mxGeometry relative="1" as="geometry"/>
        </mxCell>
        <mxCell id="edge_core_apps" style="endArrow=block;html=1;strokeColor=#82b366;" edge="1" parent="1" source="core" target="apps">
          <mxGeometry relative="1" as="geometry"/>
        </mxCell>
        <mxCell id="edge_util_apps" style="endArrow=block;html=1;strokeColor=#b85450;" edge="1" parent="1" source="utilities" target="apps">
          <mxGeometry relative="1" as="geometry"/>
        </mxCell>
        <mxCell id="edge_data_sensors" style="endArrow=block;html=1;strokeColor=#d6b656;dashed=1;" edge="1" parent="1" source="data" target="sensors">
          <mxGeometry relative="1" as="geometry"/>
        </mxCell>
        <mxCell id="edge_data_core" style="endArrow=block;html=1;strokeColor=#d6b656;dashed=1;" edge="1" parent="1" source="data" target="core">
          <mxGeometry relative="1" as="geometry"/>
        </mxCell>
        <mxCell id="edge_data_apps" style="endArrow=block;html=1;strokeColor=#d6b656;dashed=1;" edge="1" parent="1" source="data" target="apps">
          <mxGeometry relative="1" as="geometry"/>
        </mxCell>
      </root>
    </mxGraphModel>
  </diagram>
</mxfile>
